<?xml version="1.0" encoding="UTF-8"?>
<svg id="Layer_2" data-name="Layer 2" xmlns="http://www.w3.org/2000/svg" viewBox="0 0 187.91 187.91">
  <defs>
    <style>
      .cls-1 {
        fill: #17ffba;
      }

      .cls-2 {
        fill: #fff;
      }

      .cls-3 {
        fill: #e0e0e0;
      }

      .cls-4 {
        fill: #3a3a3a;
      }

      .cls-5 {
        fill: #ccc;
      }
    </style>
  </defs>
  <g id="Layer_1-2" data-name="Layer 1">
    <g>
      <rect class="cls-4" width="187.91" height="187.91" rx="51.06" ry="51.06"/>
      <path class="cls-2" d="M129.51,110.11c-1.97,13.25-8.43,24.48-16.97,31.94-6.36,5.55-13.87,9.01-21.54,9.65-2.47,.21-5.05,.24-7.67,.08-22.01-1.3-46.92-15.72-36.06-49.71-15.01-3.49-35.77-17.98-26.33-35.32,11.8-21.67,32.17-7.62,46.13,9.87-9.7-18.74-6.94-36.66,2.54-42.88,4.58-3,11.47-3.77,16.44-.94,6.3,3.6,9.77,13.14,8.25,25.23-.33,2.68-.91,5.48-1.77,8.38-.04,.17-.1,.35-.15,.52-.08,.29-.18,.59-.27,.89,.3-.65,.6-1.29,.91-1.92,4.92-9.95,11.48-17.42,18.53-21.44,4.12-2.37,8.4-3.54,12.62-3.34,.94,.04,10.4,.62,13.87,6.96,3.95,7.21-.97,19.83-13.87,32.1,1.6-1.17,3.22-2.25,4.84-3.23,12.23-7.41,24.71-9.24,33.75-4.43,1.42,.76,8.67,4.61,9.07,10.58,.63,9.35-15.89,19.84-42.32,27.01Z"/>
      <path class="cls-1" d="M94.3,58.03c-.33,2.68-.91,5.48-1.77,8.38,.33-1.4,1.13-5.31,1.77-8.38Z"/>
      <path class="cls-3" d="M129.51,110.11c-3.43,23.12-20.56,40.1-38.51,41.59-2.47,.21-5.05,.24-7.67,.08-8.17-18.13-6.76-47.54,1.43-69.31,2.14-5.69,4.74-10.86,7.62-15.54-.08,.29-.18,.59-.27,.89,.3-.65,.6-1.29,.91-1.92,4.92-9.95,11.48-17.42,18.53-21.44,4.12-2.37,8.4-3.54,12.62-3.34,.94,.04,10.4,.62,13.87,6.96,3.95,7.21-.97,19.83-13.87,32.1,13.7-10.04,28.35-13.11,38.59-7.66,1.42,.76,8.67,4.61,9.07,10.58,.63,9.35-15.89,19.84-42.32,27.01Z"/>
      <path class="cls-5" d="M129.51,110.11c-1.97,13.25-8.43,24.48-16.97,31.94-4.57-11.05-6.41-24.31-3.27-36.61,3.34-13.05,11.59-22.28,19.74-28.49,12.23-7.41,24.71-9.24,33.75-4.43,1.42,.76,8.67,4.61,9.07,10.58,.63,9.35-15.89,19.84-42.32,27.01Z"/>
    </g>
  </g>
</svg>